{"title":"The Veteran 2011 DVDRip XviD AC3 - iLLUSiON","uid":6556441,"size":1638719217,"categoryP":"video","categoryS":"movies","magnet":"?xt=urn:btih:af6505e5105f2274f0c660c10a651b389b889936&amp;dn=The+Veteran+2011+DVDRip+XviD+AC3+-+iLLUSiON&amp;tr=udp%3A%2F%2Ftracker.openbittorrent.com%3A80&amp;tr=udp%3A%2F%2Fopen.demonii.com%3A1337&amp;tr=udp%3A%2F%2Ftracker.coppersurfer.tk%3A6969&amp;tr=udp%3A%2F%2Fexodus.desync.com%3A6969","seeders":0,"leechers":1,"uploader":"hiest","files":-1,"time":1311314293,"description":"#### ##       ##       ##     ##  ######  ####  #######  ##    ## \n ##  ##       ##       ##     ## ##    ##  ##  ##     ## ###   ## \n ##  ##       ##       ##     ## ##        ##  ##     ## ####  ## \n ##  ##       ##       ##     ##  ######   ##  ##     ## ## ## ## \n ##  ##       ##       ##     ##       ##  ##  ##     ## ##  #### \n ##  ##       ##       ##     ## ##    ##  ##  ##     ## ##   ### \n#### ######## ########  #######   ######  ####  #######  ##    ## \n\n\nMovie Info\n\nPlot: A soldier returning from the war in Afghanistan uncovers a conspiracy involving the intelligence services and a gang of drug dealers.\n \nIMDB: \n &lt;a href=&quot; http://www.imdb.com/title/tt1653700/&quot; rel=&quot;nofollow&quot; target=&quot;_NEW&quot;&gt; http://www.imdb.com/title/tt1653700/&lt;/a&gt;\n\n IMDB Rating: 7.0\n\n\n\nGeneral Info\n\n Size: 1.51GB\n Format: AVI\n Runtime: 1:34:12\n\n\n\nSources\n\n Video - The.Veteran.2011.NORDiC.PAL.DVDR-EGEN\n Audio - The.Veteran.2011.NORDiC.PAL.DVDR-EGEN\n (Thanks)\n\n\n\nVideo Info\n\n ID : 0\n Format : MPEG-4 Visual\n Format profile : Advanced Simple@L5\n Format settings, BVOP : 2\n Format settings, QPel : No\n Format settings, GMC : No warppoints\n Format settings, Matrix : Default (H.263)\n Muxing mode : Packed bitstream\n Codec ID : XVID\n Codec ID/Hint : XviD\n Duration : 1h 34mn\n Bit rate : 1 839 Kbps\n Width : 720 pixels\n Height : 384 pixels\n Display aspect ratio : 1.875\n Frame rate : 25.000 fps\n Color space : YUV\n Chroma subsampling : 4:2:0\n Bit depth : 8 bits\n Scan type : Progressive\n Compression mode : Lossy\n Bits/(Pixel*Frame) : 0.266\n Stream size : 1.21 GiB (80%)\n Writing library : XviD 58\n\n\n\nAudio Info\n \n ID : 1\n Format : AC-3\n Format/Info : Audio Coding 3\n Mode extension : CM (complete main)\n Codec ID : 2000\n Duration : 1h 34mn\n Bit rate mode : Constant\n Bit rate : 448 Kbps\n Channel(s) : 6 channels\n Channel positions : Front: L C R, Side: L R, LFE\n Sampling rate : 48.0 KHz\n Bit depth : 16 bits\n Compression mode : Lossy\n Stream size : 302 MiB (20%)\n Alignment : Split accross interleaves\n Interleave, duration : 40 ms (1.00 video frame)\n Interleave, preload duration : 500 ms\n\n\nEncoders Notes\n\n I cropped, resized, sharpened, added contrast, gamma &amp; saturtion.\n Then i lightly de-noised &amp; changed the colors with a rgb eq.\n Overall it looks good , here is a comparison beetween this &amp; HIVE-CM8's\n &lt;a href=&quot; http://screenshotcomparison.com/comparison/68169/picture:4&quot; rel=&quot;nofollow&quot; target=&quot;_NEW&quot;&gt; http://screenshotcomparison.com/comparison/68169/picture:4&lt;/a&gt;\n (In my opinon) Hive-CM8's is a little brighter &amp; its a little sharper,\n but mine has better saturation, a:r &amp; less noise\n In some parts the colors arent great as i didnt adjust them as much as i should  of done.The film is ok &amp; theres a sample included, enjoy...\n\n\n\nI am looking for:\n\n Cammers, Cams, Screeners (any type), Cam audio, Line audio,\n Un-released R6's R5's R4's R2's R1's,\n A Windows Server &amp; a syncer.\n If you can provide any of these please\n contact me at &lt;a class=&quot;__cf_email__&quot; href=&quot;/cdn-cgi/l/email-protection&quot; data-cfemail=&quot;bbd2d7d7cec8d2d4d5fbd3cec8d3d6dad2d795d6de&quot;&gt;[email&amp;#160;protected]&lt;/a&gt;&lt;script cf-hash='f9e31' type=&quot;text/javascript&quot;&gt;\n/* &lt;![CDATA[ */!function(){try{var t=&quot;currentScript&quot;in document?document.currentScript:function(){for(var t=document.getElementsByTagName(&quot;script&quot;),e=t.length;e--;)if(t[e].getAttribute(&quot;cf-hash&quot;))return t[e]}();if(t&amp;&amp;t.previousSibling){var e,r,n,i,c=t.previousSibling,a=c.getAttribute(&quot;data-cfemail&quot;);if(a){for(e=&quot;&quot;,r=parseInt(a.substr(0,2),16),n=2;a.length-n;n+=2)i=parseInt(a.substr(n,2),16)^r,e+=String.fromCharCode(i);e=document.createTextNode(e),c.parentNode.replaceChild(e,c)}}}catch(u){}}();/* ]]&gt; */&lt;/script&gt;\n\n\n\n\n\n\n==================================                            &lt;a href=&quot;\nhttp://thepiratebay.se/user/hiest&quot; rel=&quot;nofollow&quot; target=&quot;_NEW&quot;&gt;\nhttp://thepiratebay.se/user/hiest&lt;/a&gt;\n==================================\n\n\n\n\n\n\nScreen Shots:\n &lt;a href=&quot;\nhttp://leetleech.org/images/49752595066734857845.jpg&quot; rel=&quot;nofollow&quot; target=&quot;_NEW&quot;&gt;\nhttp://leetleech.org/images/49752595066734857845.jpg&lt;/a&gt;\n &lt;a href=&quot;\nhttp://leetleech.org/images/22878237094717357090.jpg&quot; rel=&quot;nofollow&quot; target=&quot;_NEW&quot;&gt;\nhttp://leetleech.org/images/22878237094717357090.jpg&lt;/a&gt;\n &lt;a href=&quot;\nhttp://leetleech.org/images/86260832854725037681.jpg&quot; rel=&quot;nofollow&quot; target=&quot;_NEW&quot;&gt;\nhttp://leetleech.org/images/86260832854725037681.jpg&lt;/a&gt;\n &lt;a href=&quot;\nhttp://leetleech.org/images/11797808175220612400.jpg&quot; rel=&quot;nofollow&quot; target=&quot;_NEW&quot;&gt;\nhttp://leetleech.org/images/11797808175220612400.jpg&lt;/a&gt;\n &lt;a href=&quot;\nhttp://leetleech.org/images/49619774992178649364.jpg&quot; rel=&quot;nofollow&quot; target=&quot;_NEW&quot;&gt;\nhttp://leetleech.org/images/49619774992178649364.jpg&lt;/a&gt;\n &lt;a href=&quot;\nhttp://leetleech.org/images/37629386950811262713.jpg&quot; rel=&quot;nofollow&quot; target=&quot;_NEW&quot;&gt;\nhttp://leetleech.org/images/37629386950811262713.jpg&lt;/a&gt;\n\n\n#### ##       ##       ##     ##  ######  ####  #######  ##    ## \n ##  ##       ##       ##     ## ##    ##  ##  ##     ## ###   ## \n ##  ##       ##       ##     ## ##        ##  ##     ## ####  ## \n ##  ##       ##       ##     ##  ######   ##  ##     ## ## ## ## \n ##  ##       ##       ##     ##       ##  ##  ##     ## ##  #### \n ##  ##       ##       ##     ## ##    ##  ##  ##     ## ##   ### \n#### ######## ########  #######   ######  ####  #######  ##    ## \n","torrent":{"xt":"urn:btih:af6505e5105f2274f0c660c10a651b389b889936","amp;dn":"The+Veteran+2011+DVDRip+XviD+AC3+-+iLLUSiON","amp;tr":["udp%3A%2F%2Ftracker.openbittorrent.com%3A80","udp%3A%2F%2Fopen.demonii.com%3A1337","udp%3A%2F%2Ftracker.coppersurfer.tk%3A6969","udp%3A%2F%2Fexodus.desync.com%3A6969"],"infoHash":"af6505e5105f2274f0c660c10a651b389b889936","infoHashBuffer":{"type":"Buffer","data":[175,101,5,229,16,95,34,116,240,198,96,193,10,101,27,56,155,136,153,54]},"announce":[],"urlList":[]}}